# xmcd
#
# Track frame offsets:
#   150
#   14154
#   40945
#   61876
#   72704
#   93003
#   107877
#   120161
#   136772
#   154224
#   169988
#   194568
#   212737
#   227460
#   239787
#   250118
#   264149
#   278041
#   292282
#   303511
#   317362
#   334201
#
# Disc length: 4718 seconds
#
# Revision: 0
# Processed by: cddbd v1.5.1PL0 Copyright (c) Steve Scherf et al.
# Submitted via: Media_Universe 3.0
#
DISCID=46126c16
DTITLE=Clint Black - D'lectrified and Put Yourself In My Shoes
DYEAR=1900
DGENRE=Country
TTITLE0=Bob Away My Blues
TTITLE1=Are You Sure Waylon Done It This Way
TTITLE2=Hand In The Fire
TTITLE3=Galaxy Song
TTITLE4=When I Said I Do
TTITLE5=Dixie Lullaby
TTITLE6=Where Your Love Wont Go
TTITLE7=Love She Cant Live Without
TTITLE8=Burn One Down
TTITLE9=Who I Used To Be
TTITLE10=Harmony
TTITLE11=No Time To Kill
TTITLE12=Put Yourself In My Shoes
TTITLE13=The Gulf Of Mexico
TTITLE14=One More Payment
TTITLE15=Where Are You Now
TTITLE16=The Old Man
TTITLE17=This Night Life
TTITLE18=Muddy Water
TTITLE19=A Heart Like Mine
TTITLE20=The Goodnight Loving
TTITLE21=Angels Amoung Us
EXTD=
EXTT0=
EXTT1=
EXTT2=
EXTT3=
EXTT4=
EXTT5=
EXTT6=
EXTT7=
EXTT8=
EXTT9=
EXTT10=
EXTT11=
EXTT12=
EXTT13=
EXTT14=
EXTT15=
EXTT16=
EXTT17=
EXTT18=
EXTT19=
EXTT20=
EXTT21=
PLAYORDER=
